<svg xmlns="http://www.w3.org/2000/svg" version="1.1" viewBox="0 0 100 100">
 <g transform="translate(1.1640863e-5,-952.37859)">
  <path fill="#f89a1e" d="m-0.00001164,1052,100,0,0-100-100,0,0,100z"/>
  <path fill="#FFF" d="m49.65,1007c-0.3247-0.1108-0.7722-0.3139-0.9943-0.4512-9.884-9.747-19.83-19.94-29.27-29.51h63.61c-10.11,9.651-19.29,20.35-29.68,29.67-1.011,0.5229-2.604,0.6495-3.656,0.2905z" stroke="#FFF" stroke-width="1.06158006" />
  <path d="m16.72,979.6c7.662,7.75,15.54,15.74,21.68,21.95-7.695,7.797-14.29,14.48-21.68,21.96v-43.91z" stroke="#FFF" stroke-width="1.06158006" fill="#FFF"/>
  <path fill="#FFF" d="m40.93,1004c2.039,1.94,4.091,4.28,6.278,5.819,2.497,1.289,5.977,1.171,8.241-0.28,2.124-1.748,3.521-3.223,5.547-5.228,7.218,7.336,15.11,15.36,21.49,21.85h-63.36c7.713-7.852,15.09-15.31,21.81-22.16z" stroke="#FFF" stroke-width="1.06158006" />
  <path fill="#FFF" d="m63.53,1002c7.112-7.143,14.22-14.29,21.34-21.43,0.06104,14.47,0.03992,28.72,0,43.12-7.112-7.231-14.22-14.46-21.34-21.69z" stroke="#FFF" stroke-width="1.06158006"/>
 </g>
</svg>
