<svg xmlns="http://www.w3.org/2000/svg" version="1.1" viewBox="0 0 100 100">
  <g transform="translate(1.1640863e-5,-952.37859)">
    <path fill="#f89a1e" d="m0 1052 100 0 0-100-100 0 0 100zM49.7 1007 49.7 1007 49.7 1007 49.7 1007"/>
    <path fill="#FFF" d="m49.7 1007c-0.3-0.1-0.8-0.3-1-0.5-9.9-9.7-19.8-19.9-29.3-29.5h63.6c-10.1 9.7-19.3 20.4-29.7 29.7-1 0.5-2.6 0.6-3.7 0.3z" stroke="#FFF" stroke-width="1.1"/>
    <path d="m16.7 979.6c7.7 7.8 15.5 15.7 21.7 22-7.7 7.8-14.3 14.5-21.7 22v-43.9z" stroke="#FFF" stroke-width="1.1" fill="#FFF"/>
    <path fill="#FFF" d="m40.9 1004c2 1.9 4.1 4.3 6.3 5.8 2.5 1.3 6 1.2 8.2-0.3 2.1-1.7 3.5-3.2 5.5-5.2 7.2 7.3 15.1 15.4 21.5 21.9h-63.4c7.7-7.9 15.1-15.3 21.8-22.2z" stroke="#FFF" stroke-width="1.1"/>
    <path fill="#FFF" d="m63.5 1002c7.1-7.1 14.2-14.3 21.3-21.4 0.1 14.5 0 28.7 0 43.1-7.1-7.2-14.2-14.5-21.3-21.7z" stroke="#FFF" stroke-width="1.1"/>
  </g>
</svg>
