<svg xmlns="http://www.w3.org/2000/svg" viewBox="0 0 100 100">
  <path fill="#f89a1e" d="M0 99.62h100v-100H0v100z"/>
  <path fill="#fff" stroke="#fff" stroke-width="1.06" d="M48.77 54.62c-9.88-9.75-19.94-19.94-29.38-29.5H83c-10.1 9.64-19.16 20.3-29.55 29.62-1.82 1.46-2.94 1.42-4.68-.1z"/>
  <path fill="#FFF" stroke="#FFF" stroke-width="1.06" d="M16.72 27.22L38.4 49.17 16.72 71.13v-43.9z"/>
  <path fill="#fff" stroke="#fff" stroke-width="1.06" d="M61 51.62l21.5 21.85H19.12c7.7-7.85 15.02-15.38 21.74-22.23C50.26 61.47 52 61.67 61 51.62z"/>
  <path fill="#FFF" stroke="#FFF" stroke-width="1.06" d="M63.53 49.62c7.1-7.14 14.22-14.3 21.34-21.43.06 14.45.04 28.7 0 43.1L63.53 49.62z"/>
</svg>
