<svg xmlns="http://www.w3.org/2000/svg" version="1.1" viewBox="0 0 100 100">
	<g transform="matrix(1.066098,0,0,1.066098,-333.79528,-566.31126)">
		<path fill="#3b5998" d="m313.1,625,93.8,0,0-93.8-93.8,0,0,93.8zm81.8-37.7,1.9-14.3-14.2,0,0-9.2m12.3,23.5,1.9-14.3-14.2,0,0-9.2m12.3,23.5,1.9-14.3-14.2,0,0-9.2"/>
		<path fill="#FFF" d="m394.9,587.3,1.9-14.3-14.2,0,0-9.2c0-4.2,1.2-7,7.1-7h7.6v-12.8c-1.3-0.2-5.8-0.6-11.1-0.6-11,0-18.5,6.7-18.5,19v10.6h-12.4v14.4h12.4v36.8h14.8v-36.8h12.4"/>
	</g>
</svg>
