<svg xmlns="http://www.w3.org/2000/svg" version="1.1" viewBox="0 0 100 100">
  <g transform="translate(-327.90037,-479.463)">
    <path fill="#1a1817" d="m327.9 579.5 100 0 0-100-100 0 0 100zM377.9 495.6 377.9 495.6"/>
    <path fill="#FFF" d="m377.9 495.6c-19.2 0-34.7 15.6-34.7 34.7 0 15.3 10 28.4 23.8 33 1.7 0.3 2.4-0.8 2.4-1.7 0-0.8 0-3 0-5.9-9.7 2.1-11.7-4.7-11.7-4.7-1.6-4-3.9-5.1-3.9-5.1-3.2-2.2 0.2-2.1 0.2-2.1 3.5 0.2 5.3 3.6 5.3 3.6 3.1 5.3 8.1 3.8 10.1 2.9 0.3-2.2 1.2-3.8 2.2-4.6-7.7-0.9-15.8-3.9-15.8-17.2 0-3.8 1.4-6.9 3.6-9.3-0.4-0.9-1.5-4.4 0.3-9.2 0 0 2.9-0.9 9.6 3.6 2.8-0.8 5.7-1.2 8.7-1.2 3 0 5.9 0.4 8.7 1.2 6.6-4.5 9.6-3.6 9.6-3.6 1.9 4.8 0.7 8.3 0.3 9.2 2.2 2.4 3.6 5.5 3.6 9.3 0 13.4-8.1 16.3-15.9 17.1 1.2 1.1 2.4 3.2 2.4 6.4 0 4.6 0 8.4 0 9.5 0 0.9 0.6 2 2.4 1.7 13.8-4.6 23.7-17.6 23.7-32.9 0-19.2-15.5-34.7-34.7-34.7"/>
  </g>
</svg>
