<svg xmlns="http://www.w3.org/2000/svg" version="1.1" viewBox="0 0 100 100">
 <g transform="translate(-327.90037,-479.463)">
  <path fill="#1a1817" d="m327.9,579.5,100,0,0-100-100,0,0,100z"/>
  <path fill="#FFF" d="m377.9,495.6c-19.19,0-34.74,15.55-34.74,34.74,0,15.34,9.95,28.36,23.76,32.96,1.74,0.3158,2.373-0.7603,2.373-1.677,0-0.824-0.0265-3.01-0.0478-5.909-9.662,2.099-11.7-4.655-11.7-4.655-1.582-4.011-3.86-5.077-3.86-5.077-3.152-2.159,0.2415-2.115,0.2415-2.115,3.489,0.2468,5.323,3.579,5.323,3.579,3.096,5.31,8.129,3.771,10.11,2.885,0.3118-2.247,1.209-3.771,2.201-4.642-7.714-0.8731-15.82-3.861-15.82-17.17,0-3.787,1.356-6.892,3.574-9.318-0.3556-0.8811-1.546-4.411,0.3437-9.194,0,0,2.913-0.9342,9.552,3.563,2.769-0.7723,5.746-1.158,8.696-1.172,2.951,0.0133,5.924,0.3994,8.694,1.172,6.636-4.497,9.55-3.563,9.55-3.563,1.891,4.784,0.7006,8.313,0.341,9.194,2.223,2.426,3.572,5.531,3.572,9.318,0,13.35-8.125,16.28-15.86,17.14,1.246,1.072,2.361,3.187,2.361,6.429,0,4.644-0.0425,8.39-0.0425,9.53,0,0.9275,0.6277,2.006,2.39,1.667,13.79-4.598,23.73-17.61,23.73-32.95,0-19.19-15.55-34.74-34.74-34.74"/>
 </g>
</svg>
