<svg xmlns="http://www.w3.org/2000/svg" viewBox="0 0 100 100">
  <path fill="#1a1817" d="M0 100.04h100V.04H0v100z"/>
  <path fill="#FFF" d="M50 16.14c-19.2 0-34.74 15.55-34.74 34.74 0 15.34 9.95 28.36 23.76 32.96 1.74.3 2.37-.76 2.37-1.68l-.08-5.9c-9.66 2.1-11.7-4.66-11.7-4.66-1.58-4.02-3.86-5.08-3.86-5.08-3.15-2.16.25-2.12.25-2.12 3.5.25 5.33 3.58 5.33 3.58 3.1 5.3 8.13 3.77 10.1 2.9.32-2.26 1.22-3.78 2.2-4.65-7.7-.88-15.8-3.87-15.8-17.17 0-3.8 1.35-6.9 3.56-9.32-.35-.88-1.54-4.4.35-9.2 0 0 2.9-.93 9.55 3.57 2.8-.75 5.77-1.13 8.7-1.15 2.97.02 5.94.4 8.7 1.18 6.65-4.5 9.56-3.56 9.56-3.56 1.9 4.8.7 8.32.34 9.2 2.2 2.42 3.56 5.53 3.56 9.32 0 13.34-8.12 16.27-15.86 17.13 1.25 1.07 2.36 3.18 2.36 6.42 0 4.65-.04 8.4-.04 9.53 0 .93.63 2 2.4 1.67 13.78-4.6 23.72-17.6 23.72-32.95 0-19.2-15.55-34.75-34.74-34.75"/>
</svg>
