<svg xmlns="http://www.w3.org/2000/svg" viewBox="0 0 100 100">
    <defs>
        <radialGradient id="a" cx="158" cy="578" r="65" gradientTransform="matrix(0 -1.52465 1.41843 0 -793.407 349.247)" gradientUnits="userSpaceOnUse">
            <stop offset="0" stop-color="#fd5"/>
            <stop offset=".5" stop-color="#ff543e"/>
            <stop offset="1" stop-color="#c837ab"/>
        </radialGradient>
        <radialGradient id="b" cx="148" cy="473" r="65" gradientTransform="matrix(.1338 .66827 -2.75533 .5517 1268.005 -352.72)" gradientUnits="userSpaceOnUse">
            <stop offset="0" stop-color="#3771c8"/>
            <stop offset="1" stop-color="#60f" stop-opacity="0"/>
        </radialGradient>
    </defs>
    <path fill="url(#a)" d="M50 0C33.4.12.7 0 0 0v100c.8 0 72.2.09 100 0 0-1.02.01-66.8 0-100-.83 0-34.9.28-50 0z"/>
    <path fill="url(#b)" d="M0 0v100h100V0C98.05 0 1.1.01 0 0z"/>
    <path fill="#fff" d="M50 13.1c-10 0-11.3.04-15.2.22-3.93.18-6.61.8-8.96 1.72-2.43.94-4.49 2.2-6.54 4.26-2.05 2.05-3.32 4.11-4.26 6.54-.91 2.35-1.54 5.03-1.72 8.96-.18 3.94-.22 5.2-.22 15.2s.04 11.3.22 15.2c.18 3.93.8 6.61 1.72 8.96.94 2.43 2.21 4.49 4.26 6.54s4.11 3.32 6.54 4.26c2.35.91 5.03 1.54 8.96 1.72 3.94.18 5.2.22 15.2.22s11.3-.04 15.2-.22c3.93-.18 6.62-.8 8.97-1.72 2.43-.94 4.48-2.21 6.54-4.26 2.05-2.05 3.32-4.11 4.26-6.54.91-2.35 1.53-5.03 1.72-8.96.18-3.94.22-5.19.22-15.2s-.05-11.3-.22-15.2c-.18-3.93-.81-6.61-1.72-8.96-.95-2.43-2.21-4.49-4.26-6.54s-4.11-3.32-6.54-4.26c-2.4-.9-5.1-1.5-9-1.7s-5.2-.2-15.2-.2zm-3.31 6.65H50c9.86 0 11 .04 14.9.21 3.6.17 5.55.77 6.86 1.27 1.72.67 2.95 1.47 4.24 2.76s2.09 2.52 2.76 4.25c.51 1.3 1.11 3.25 1.27 6.85.18 3.89.22 5.06.22 14.9 0 9.85-.04 11-.21 14.9-.16 3.6-.77 5.55-1.27 6.85-.67 1.72-1.47 2.95-2.76 4.24s-2.52 2.09-4.24 2.76c-1.3.51-3.26 1.11-6.86 1.27-3.89.18-5.06.22-14.9.22-9.86 0-11-.04-14.9-.21-3.6-.2-5.6-.8-6.9-1.3-1.7-.7-2.9-1.5-4.2-2.8s-2.1-2.5-2.8-4.2c-.5-1.3-1.1-3.3-1.3-6.9-.1-3.9-.2-5.1-.2-14.9 0-9.86.04-11 .21-14.9.17-3.6.77-5.55 1.27-6.86.67-1.72 1.47-2.95 2.76-4.25 1.29-1.29 2.52-2.09 4.25-2.76 1.3-.51 3.26-1.11 6.86-1.27 3.41-.15 4.73-.2 11.6-.21zm23 6.13c-2.45 0-4.43 1.98-4.43 4.43s1.98 4.43 4.43 4.43 4.43-1.98 4.43-4.43-1.98-4.43-4.43-4.43zm-19.7 5.18c-10.5 0-19 8.49-19 19s8.49 19 19 19 19-8.49 19-19-8.49-19-19-19zm0 6.65c6.8 0 12.3 5.51 12.3 12.3 0 6.8-5.51 12.3-12.3 12.3-6.8 0-12.3-5.51-12.3-12.3 0-6.8 5.51-12.3 12.3-12.3z"/>
</svg>
