<svg xmlns="http://www.w3.org/2000/svg" version="1.1" viewBox="0 0 100 100">
  <defs>
    <radialGradient id="instagramGradient" gradientUnits="userSpaceOnUse" cy="0" cx="0" gradientTransform="matrix(1642.3113,4739.653,4786.7491,-1626.1528,1125.3683,-359.39443)" r="1">
      <stop id="stop28" offset="0" stop-color="#fbd459"/>
      <stop id="stop30" offset="0.2" stop-color="#f29b3e"/>
      <stop id="stop32" offset="0.4" stop-color="#f14534"/>
      <stop id="stop34" offset="0.7" stop-color="#c21889"/>
      <stop id="stop36" offset="1" stop-color="#5a63b8"/>
      <stop id="stop38" offset="1" stop-color="#5a63b8"/>
    </radialGradient>
    <clipPath id="clipPath" clipPathUnits="userSpaceOnUse">
      <rect transform="scale(1,-1)" height="4274.3" width="4282.1" y="-4274.3" x="0" fill="#f00"/>
    </clipPath>
  </defs>
  <g transform="translate(-467.18584,-396.60585)">
    <g transform="matrix(1.3333333,0,0,-1.3333333,467.25537,496.65387)">
      <g transform="scale(0.1,0.1)">
        <path id="path42" fill="url(#instagramGradient)" d="m712.1-371.7v1.2h-22.3v1.2h-15.2v1.2h-15.2v1.2h-14.1v1.2h-9.4v1.2h-9.4v1.2h-9.4v1.2h-9.4v1.2h-9.4v1.2h-8.2v1.2h-5.9v1.2h-7v1.2h-7v1.2h-5.9v1.2h-7v1.2h-5.9v1.2h-7v1.2h-5.9v1.2h-5.9v1.2h-4.7v1.2h-4.7v1.2h-5.9v1.2h-4.7v1.2h-4.7v1.2h-5.9v1.2h-4.7v1.2h-4.7v1.2h-5.9v1.2h-4.7v1.2h-3.5v1.2h-4.7v1.2h-3.5v1.2h-4.7v1.2h-3.5v1.2h-4.7v1.2h-3.5v1.2h-4.7v1.2h-3.5v1.2h-4.7v1.2h-3.5v1.2h-4.7v1.2h-3.5v1.2h-3.5v1.2h-2.3v1.2h-3.5v1.2h-3.5v1.2h-3.5v1.2h-3.5v1.2h-3.5v1.2h-3.5v1.2h-3.5v1.2h-3.5v1.2h-3.5v1.2h-3.5v1.2h-3.5v1.2h-3.5v1.2h-2.3v1.2h-3.5v1.2h-2.3v1.2h-3.5v1.2h-2.3v1.2h-3.5v1.2h-2.3v1.2h-3.5v1.2h-2.3v1.2h-3.5v1.2h-2.3v1.2h-3.5v1.2h-2.3v1.2h-3.5v1.2h-3.5v1.2h-2.3v1.2h-2.3v1.2h-3.5v1.2h-2.3v1.2h-2.3v1.2h-2.3v1.2h-2.3v1.2h-3.5v1.2h-2.3v1.2h-2.3v1.2h-2.3v1.2h-2.3v1.2h-3.5v1.2h-2.3v1.2h-2.3v1.2h-2.3v1.2h-2.3v1.2h-3.5v1.2h-2.3v1.2h-2.3v1.2h-2.3v1.2h-2.3v1.2h-2.4v1.2h-2.3v1.2h-2.3v1.2h-2.3v1.2h-2.3v1.2h-2.3v1.2h-2.3v1.2h-2.3v1.2h-2.3v1.2h-1.2v1.2h-2.3v1.2h-2.3v1.2h-2.3v1.2h-2.4v1.2h-2.3v1.2h-2.3v1.2h-2.3v1.2h-2.3v1.2h-2.3v1.2h-2.3v1.2h-1.2v1.2h-2.3v1.2h-2.3v1.2h-2.3v1.2h-1.2v1.2h-2.3v1.2h-2.3v1.2h-2.3v1.2h-1.2v1.2h-2.3v1.2h-2.3v1.2h-1.2v1.2h-2.3v1.2h-2.3v1.2h-2.3v1.2h-1.2v1.2h-2.3v1.2h-2.5v1.2h-2.3v1.2h-1.2v1.2h-2.3v1.2h-2.3v1.2h-1.2v1.2h-2.3v1.2h-1.2v1.2h-2.3v1.2h-1.2v1.2h-2.3v1.2h-2.3v1.2h-1.2v1.2h-2.3v1.2h-1.2v1.2h-2.3v1.2h-1.2v1.2h-2.3v1.2h-1.2v1.2h-2.3v1.2h-2.3v1.2h-1.2v1.2h-2.3v1.2h-1.2v1.2h-2.3v1.2h-1.2v1.2h-2.3v1.2h-1.2v1.2h-2.3v1.2h-1.2v1.2h-2.3v1.2h-1.2v1.2h-2.3v1.2h-1.2v1.2h-1.2v1.2h-2.3v1.2h-1.2v1.2h-2.3v1.2h-1.2v1.2h-1.2v1.2h-2.3v1.2h-1.2v1.2h-2.3v1.2h-1.2v1.2h-1.2v1.2h-2.5v1.2h-1.2v1.2h-2.3v1.2h-1.2v1.2h-1.2v1.2h-2.3v1.2h-1.2v1.2h-1.2v1.2h-2.3v1.2h-1.2v1.2h-2.3v1.2h-1.2v1.2h-1.4v1.2h-1.2v1.2h-2.3v1.2h-1.2v1.2h-1.2v1.2h-1.2v1.2h-2.3v1.2h-1.2v1.2h-1.2v1.2h-1.2v1.2h-2.3v1.2h-1.2v1.2h-1.2v1.2h-2.3v1.2h-1.2v1.2h-1.2v1.2h-1.2v1.2h-2.3v1.2h-1.2v1.2h-1.2v1.2h-1.2v1.2h-2.3v1.2h-1.2v1.2h-1.2v1.2h-1.2v1.2h-2.3v1.2h-1.2v1.2h-1.2v1.2h-1.2v1.2h-1.2v1.2h-1.2v1.2h-2.3v1.2h-1.2v1.2h-1.2v1.2h-1.2v1.2h-1.2v1.2h-1.2v1.2h-2.3v1.2h-1.2v1.2h-1.2v1.2h-1.2v1.2h-1.2v1.2h-1.2v1.2h-1.2v1.2h-2.3v1.2h-1.2v1.2h-1.2v1.2h-1.2v1.2h-1.2v1.2h-1.2v1.2h-1.2v1.2h-2.3v1.2h-1.2v1.2h-1.2v1.2h-1.2v1.2h-1.2v1.2h-1.2v1.2h-1.2v1.2h-1.2v1.2h-1.2v1.2h-1.2v1.2h-1.2v1.2h-1.2v1.2h-1.2v1.2h-2.3v1.2h-1.2v1.2h-1.2v1.2h-1.2v1.2h-1.2v1.2h-1.2v1.2h-1.2v1.2h-1.2v1.2h-1.2v1.2h-1.2v1.2h-1.2v1.2h-1.2v1.2h-1.2v1.2h-1.2v1.2h-1.2v1.2h-1.2v1.2h-1.2v1.2h-1.2v1.2h-1.2v1.2h-1.2v1.2h-1.2v1.2h-1.2v1.2h-1.2v1.2h-1.2v1.2h-1.2v1.2h-1.2v1.2h-1.2v1.2h-1.2v1.2h-1.2v1.2h-1.2v1.2h-1.2v1.2h-1.2v1.2h-1.2v1.2h-1.2v1.2h-1.2v1.2h-1.2v1.2h-1.2v1.2h-1.2v1.2h-1.2v1.2h-1.2v2.3h-1.2v1.2h-1.2v1.2h-1.2v1.2h-1.2v1.2h-1.2v1.2h-1.2v1.2h-1.2v1.2h-1.2v1.2h-1.2v1.2h-1.2v1.2h-1.2v1.2h-1.2v1.2h-1.2v1.2h-1.2v1.2h-1.2v2.3h-1.2v1.2h-1.2v1.2h-1.2v1.2h-1.2v1.2h-1.2v1.2h-1.2v2.3h-1.2v1.2h-1.2v1.2h-1.2v1.2h-1.2v1.2h-1.2v1.2h-1.2v1.3h-1.2v2.3h-1.2v1.2h-1.2v1.2h-1.2v1.3h-1.2v1.2h-1.2v1.2h-1.2v2.3h-1.2v1.2h-1.2v1.2h-1.2v1.2h-1.2v1.2h-1.2v1.2h-1.2v2.3h-1.2v1.2h-1.2v1.2h-1.2v1.2h-1.2v1.2h-1.2v2.3h-1.2v1.2h-1.2v1.2h-1.2v2.3h-1.2v1.2h-1.2v1.2h-1.2v1.2h-1.2v2.3h-1.2v1.2h-1.2v1.2h-1.2v1.2h-1.2v2.3h-1.2v1.2h-1.2v1.2h-1.2v2.3h-1.2v1.2h-1.2v1.2h-1.2v1.2h-1.2v2.3h-1.2v1.2h-1.2v1.2h-1.2v2.3h-1.2v1.2h-1.2v1.2h-1.2v1.2h-1.2v2.3h-1.2v1.2h-1.2v1.2h-1.2v2.3h-1.2v1.2h-1.2v2.3h-1.2v1.2h-1.2v2.3h-1.2v1.2h-1.2v1.2h-1.2v2.3h-1.2v1.2h-1.2v2.3h-1.2v1.2h-1.2v1.2h-1.2v2.3h-1.2v1.2h-1.2v2.3h-1.2v1.2h-1.2v2.3h-1.2v1.2h-1.2v1.2h-1.2v2.3h-1.2v1.2h-1.2v2.3h-1.2v1.2h-1.2v1.2h-1.2v2.3h-1.2v2.3h-1.2v1.2h-1.2v2.3h-1.2v1.2h-1.2v2.3h-1.2v1.2h-1.2v2.3h-1.2v2.3h-1.2v1.2h-1.2v2.3h-1.2v1.2h-1.2v2.3h-1.2v1.2h-1.2v2.3h-1.2v1.2h-1.2v2.3h-1.2v2.3h-1.2v1.2h-1.2v2.3h-1.2v1.2h-1.2v2.3h-1.2v1.2h-1.2v2.3h-1.2v2.3h-1.2v2.3h-1.2v1.2h-1.2v2.3h-1.2v2.3h-1.2v1.2h-1.2v2.3h-1.2v2.3h-1.2v2.3h-1.2v1.2h-1.2v2.3h-1.2v2.3h-1.2v2.3h-1.2v1.2h-1.2v2.3h-1.2v2.3h-1.2v2.3h-1.2v1.2h-1.2v2.3h-1.2v2.3h-1.2v2.3h-1.2v1.2h-1.2v2.3h-1.2v2.3h-1.2v2.3h-1.2v2.3h-1.2v2.3h-1.2v2.3h-1.2v2.3h-1.2v2.3h-1.2v2.3h-1.2v2.3h-1.2v2.3h-1.2v2.3h-1.2v2.3h-1.2v2.3h-1.2v2.3h-1.2v2.3h-1.2v2.3h-1.2v2.3h-1.2v2.3h-1.2v2.3h-1.2v2.3h-1.2v2.3h-1.2v2.3h-1.2v2.3h-1.2v2.3h-1.2v3.5h-1.2v2.3h-1.2v2.3h-1.2v2.3h-1.2v3.5h-1.2v2.3h-1.2v2.3h-1.2v2.3h-1.2v2.3h-1.2v3.5h-1.2v2.3h-1.2v2.3h-1.2v2.3h-1.2v3.5h-1.2v2.3h-1.2v2.3h-1.2v3.5h-1.2v2.3h-1.2v3.5h-1.2v3.5h-1.2v2.3h-1.2v3.5h-1.2v2.3h-1.2v3.5h-1.2v2.3h-1.2v3.5h-1.2v2.3h-1.2v3.5h-1.2v2.3h-1.2v3.5h-1.2v3.5h-1.2v2.3h-1.2v3.5h-1.2v3.5h-1.2v3.5h-1.2v3.5h-1.2v3.5h-1.2v3.5h-1.2v3.5h-1.2v3.5h-1.2v3.5h-1.2v3.5h-1.2v3.5h-1.2v3.5h-1.2v3.5h-1.2v3.5h-1.2v3.5h-1.2v4.6h-1.2v3.5h-1.2v4.6h-1.2v4.6h-1.2v3.5h-1.2v4.6h-1.2v3.5h-1.2v4.6h-1.2v3.5h-1.2v4.6h-1.2v3.5h-1.2v4.6h-1.2v4.6h-1.2v5.8h-1.2v4.6h-1.2v5.8h-1.2v4.6h-1.2v4.6h-1.2v5.8h-1.2v4.6h-1.2v4.6h-1.2v5.8h-1.2v5.8h-1.2v7h-1.2v5.8h-1.2v7h-1.2v7h-1.2v5.8h-1.2v7h-1.2v7h-1.2v8.1h-1.2v9.3h-1.2v9.3h-1.2v9.3h-1.2v9.3h-1.2v8.1h-1.2v15.1h-1.2v15.1h-1.2v15.1h-1.2v22.1h-1.2v2880.2h1.2v22.1h1.2v15.1h1.2v16.3h1.2v13.9h1.2v9.3h1.2v9.3h1.2v9.3h1.2v8.1h1.2v9.3h1.2v9.3h1.2v5.8h1.2v7h1.2v7h1.2v5.8h1.2v7h1.2v5.8h1.2v7h1.2v7h1.2v4.6h1.2v4.6h1.2v5.8h1.2v4.6h1.2v4.6h1.2v5.8h1.2v4.6h1.2v4.6h1.2v5.8h1.2v4.6h1.2v4.6h1.2v3.5h1.2v4.6h1.2v4.6h1.2v3.5h1.2v4.6h1.2v3.5h1.2v4.6h1.2v3.5h1.2v4.6h1.2v3.5h1.2v4.6h1.2v3.5h1.2v3.5h1.2v3.5h1.2v3.5h1.2v3.5h1.2v3.5h1.2v3.5h1.2v3.5h1.2v3.5h1.2v3.5h1.2v3.5h1.2v3.5h1.2v3.5h1.2v3.5h1.2v3.5h1.2v3.5h1.2v2.3h1.2v3.5h1.2v2.3h1.2v3.5h1.2v2.3h1.2v3.5h1.2v3.5h1.2v2.3h1.2v3.5h1.2v2.3h1.2v3.5h1.2v2.3h1.2v3.5h1.2v2.3h1.2v3.5h1.2v2.3h1.2v3.5h1.2v2.3h1.2v2.3h1.2v2.3h1.2v3.5h1.2v2.3h1.2v2.3h1.2v2.3h1.2v3.5h1.2v2.3h1.2v2.3h1.2v2.3h1.2v2.3h1.2v3.5h1.2v2.3h1.2v2.3h1.2v2.3h1.2v3.5h1.2v2.3h1.2v2.3h1.2v2.3h1.2v2.3h1.2v2.3h1.2v2.3h1.2v1.2h1.2v2.3h1.2v2.3h1.2v2.3h1.2v2.3h1.2v2.3h1.2v2.3h1.2v2.3h1.2v2.3h1.2v2.3h1.2v2.3h1.2v2.3h1.2v2.3h1.2v2.3h1.2v2.3h1.2v2.3h1.2v2.3h1.2v1.2h1.2v2.3h1.2v2.3h1.2v2.3h1.2v1.2h1.2v2.3h1.2v2.3h1.2v2.3h1.2v1.2h1.2v2.3h1.2v2.3h1.2v1.2h1.2v2.3h1.2v2.3h1.2v2.3h1.2v1.2h1.2v2.3h1.2v2.3h1.2v2.3h1.2v1.2h1.2v2.3h1.2v2.3h1.2v1.2h1.2v2.3h1.2v1.2h1.2v2.3h1.2v2.3h1.2v1.2h1.2v2.3h1.2v1.2h1.2v2.3h1.2v1.2h1.2v2.3h1.2v2.3h1.2v1.2h1.2v2.3h1.2v1.2h1.2v2.3h1.2v1.2h1.2v2.3h1.2v2.3h1.2v1.2h1.2v2.3h1.2v1.2h1.2v2.3h1.2v1.2h1.2v2.3h1.2v1.2h1.2v1.2h1.2v2.3h1.2v1.2h1.2v2.3h1.2v1.2h1.2v2.3h1.2v1.2h1.2v1.2h1.2v2.3h1.2v1.2h1.2v2.3h1.2v1.2h1.2v1.2h1.2v2.3h1.2v1.2h1.2v2.3h1.2v1.2h1.2v2.3h1.2v1.2h1.2v1.2h1.2v2.3h1.2v1.2h1.2v2.3h1.2v1.2h1.2v1.2h1.2v1.2h1.2v2.3h1.2v1.2h1.2v1.2h1.2v2.3h1.2v1.2h1.2v1.2h1.2v1.2h1.2v2.3h1.2v1.2h1.2v1.2h1.2v1.2h1.2v2.3h1.2v1.2h1.2v1.2h1.2v2.3h1.2v1.2h1.2v1.2h1.2v1.2h1.2v2.3h1.2v1.2h1.2v1.2h1.2v2.3h1.2v1.2h1.2v1.2h1.2v1.2h1.2v2.3h1.2v1.2h1.2v1.2h1.2v1.2h1.2v1.2h1.2v1.2h1.2v1.2h1.2v2.3h1.2v1.2h1.2v1.2h1.2v1.2h1.2v1.2h1.2v1.2h1.2v2.3h1.2v1.2h1.2v1.2h1.2v1.2h1.2v1.2h1.2v1.2h1.2v2.3h1.2v1.2h1.2v1.2h1.2v1.2h1.2v1.2h1.2v1.2h1.2v2.3h1.2v1.2h1.2v1.2h1.2v1.2h1.2v1.2h1.2v1.2h1.2v1.2h1.2v1.2h1.2v1.2h1.2v1.2h1.2v1.2h1.2v1.2h1.2v1.2h1.2v2.3h1.2v1.2h1.2v1.2h1.2v1.2h1.2v1.2h1.2v1.2h1.2v1.2h1.2v1.2h1.2v1.2h1.2v1.2h1.2v1.2h1.2v1.2h1.2v1.2h1.2v1.2h1.2v1.2h1.2v1.2h1.2v1.2h1.2v1.2h1.2v2.3h1.2v1.2h1.2v1.2h1.2v1.2h1.2v1.2h1.2v1.2h1.2v1.2h2.3v1.2h1.2v1.2h1.2v1.2h1.2v1.2h1.2v1.2h1.2v1.2h1.2v1.2h1.2v1.2h1.2v1.2h1.2v1.2h1.2v1.2h1.2v1.2h1.2v1.2h1.2v1.2h1.2v1.2h1.2v1.2h1.2v1.2h1.2v1.2h1.2v1.2h1.2v1.2h1.2v1.2h1.2v1.2h1.2v1.2h2.3v1.2h1.2v1.2h1.2v1.2h1.2v1.2h1.2v1.2h1.2v1.2h1.2v1.2h1.2v1.2h1.2v1.2h1.2v1.2h2.3v1.2h1.2v1.2h1.2v1.2h1.2v1.2h1.2v1.2h1.2v1.2h1.2v1.2h2.3v1.2h1.2v1.2h1.2v1.2h1.2v1.2h1.2v1.2h1.2v1.2h2.3v1.2h1.2v1.2h1.2v1.2h1.2v1.2h1.2v1.2h1.2v1.2h1.2v1.2h2.3v1.2h1.2v1.2h1.2v1.2h1.2v1.2h1.2v1.2h1.2v1.2h2.3v1.2h1.2v1.2h1.2v1.2h2.3v1.2h1.2v1.2h1.2v1.2h1.2v1.2h2.3v1.2h1.2v1.2h1.2v1.2h1.2v1.2h2.3v1.2h1.2v1.2h1.2v1.2h1.2v1.2h2.4v1.2h1.2v1.2h1.2v1.2h2.3v1.2h1.2v1.2h1.2v1.2h1.2v1.2h2.3v1.2h1.2v1.2h1.2v1.2h1.2v1.2h2.3v1.2h1.2v1.2h2.3v1.2h1.2v1.2h1.2v1.2h2.3v1.2h1.2v1.2h2.3v1.2h1.2v1.2h1.2v1.2h2.3v1.2h1.2v1.2h2.3v1.2h1.2v1.2h1.2v1.2h2.3v1.2h1.2v1.2h2.3v1.2h1.2v1.2h1.2v1.2h2.3v1.2h1.2v1.2h2.3v1.2h1.2v1.2h1.2v1.2h2.3v1.2h1.2v1.2h2.3v1.2h1.2v1.2h2.3v1.2h1.2v1.2h2.3v1.2h2.3v1.2h1.2v1.2h2.3v1.2h1.2v1.2h2.3v1.2h1.2v1.2h2.3v1.2h1.3v1.2h2.3v1.2h2.3v1.2h1.2v1.2h2.3v1.2h1.2v1.2h2.3v1.2h1.2v1.2h2.3v1.2h1.2v1.2h2.3v1.2h2.3v1.2h1.2v1.2h2.3v1.2h2.3v1.2h1.2v1.2h2.3v1.2h2.3v1.2h2.3v1.2h1.2v1.2h2.3v1.2h2.3v1.2h2.3v1.2h1.2v1.2h2.3v1.2h2.3v1.2h2.3v1.2h1.2v1.2h2.3v1.2h2.3v1.2h1.2v1.2h2.3v1.2h2.3v1.2h2.3v1.2h2.3v1.2h1.2v1.2h2.3v1.2h2.3v1.2h2.3v1.2h2.3v1.2h2.3v1.2h2.3v1.2h2.3v1.2h2.3v1.2h2.3v1.2h2.3v1.2h2.3v1.2h2.3v1.2h2.3v1.2h2.3v1.2h2.3v1.2h2.3v1.2h2.3v1.2h1.2v1.2h2.3v1.2h3.5v1.2h2.3v1.2h2.3v1.2h2.3v1.2h2.3v1.2h3.5v1.2h2.3v1.2h2.3v1.2h2.3v1.2h2.3v1.2h3.5v1.2h2.3v1.2h2.3v1.2h2.3v1.2h2.3v1.2h3.5v1.2h2.3v1.2h2.3v1.2h2.3v1.2h3.5v1.2h2.3v1.2h3.5v1.2h2.3v1.2h3.5v1.2h3.5v1.2h2.3v1.2h3.5v1.2h2.3v1.2h3.5v1.2h2.3v1.2h3.5v1.2h2.3v1.2h3.5v1.2h2.3v1.2h3.5v1.2h3.5v1.2h2.3v1.2h3.5v1.2h3.5v1.2h3.5v1.2h3.5v1.2h3.5v1.2h3.5v1.2h3.5v1.2h3.5v1.2h3.5v1.2h3.5v1.2h3.5v1.2h3.5v1.2h3.5v1.2h3.5v1.2h4.7v1.2h3.5v1.2h4.7v1.2h3.5v1.2h4.7v1.2h3.5v1.2h4.7v1.2h3.5v1.2h4.7v1.2h3.5v1.2h4.7v1.2h3.5v1.2h5.9v1.2h4.7v1.2h4.7v1.2h5.9v1.2h4.7v1.2h4.7v1.2h5.9v1.2h4.7v1.2h4.7v1.2h4.7v1.2h7v1.2h5.9v1.2h7v1.2h7v1.2h5.9v1.2h7v1.2h5.9v1.2h7v1.2h8.2v1.2h8.2v1.2h9.4v1.2h9.4v1.2h9.4v1.2h9.4v1.2h12.9v1.2h15.2v1.2h15.2v1.2h15.2v1.2h2949.9v-1.2h15.2v-1.2h15.2v-1.2h15.2v-1.2h12.9v-1.2h9.4v-1.2h9.4v-1.2h9.4v-1.2h9.4v-1.2h8.2v-1.2h8.2v-1.2h7v-1.2h5.9v-1.2h7v-1.2h7v-1.2h5.9v-1.2h7v-1.2h5.9v-1.2h7v-1.2h4.7v-1.2h4.7v-1.2h5.9v-1.2h4.7v-1.2h4.7v-1.2h4.7v-1.2h5.9v-1.2h4.7v-1.2h4.7v-1.2h5.9v-1.2h3.5v-1.2h4.7v-1.2h3.5v-1.2h4.7v-1.2h3.5v-1.2h4.7v-1.2h3.5v-1.2h4.7v-1.2h3.5v-1.2h4.7v-1.2h3.5v-1.2h4.7v-1.2h3.5v-1.2h3.5v-1.2h3.5v-1.2h3.5v-1.2h3.5v-1.2h3.5v-1.2h3.5v-1.2h3.5v-1.2h3.5v-1.2h3.5v-1.2h3.5v-1.2h3.5v-1.2h3.5v-1.2h3.5v-1.2h3.5v-1.2h2.3v-1.2h3.5v-1.2h2.3v-1.2h3.5v-1.2h2.3v-1.2h3.5v-1.2h2.3v-1.2h3.5v-1.2h3.5v-1.2h2.3v-1.2h3.5v-1.2h2.3v-1.2h3.5v-1.2h2.3v-1.2h3.5v-1.2h2.3v-1.2h3.5v-1.2h2.3v-1.2h2.3v-1.2h2.3v-1.2h3.5v-1.2h2.3v-1.2h2.3v-1.2h2.3v-1.2h2.3v-1.2h3.5v-1.2h2.3v-1.2h2.3v-1.2h2.3v-1.2h2.3v-1.2h3.5v-1.2h2.3v-1.2h2.3v-1.2h2.3v-1.2h2.3v-1.2h3.5v-1.2h2.3v-1.2h2.3v-1.2h2.3v-1.2h1.2v-1.2h2.3v-1.2h2.3v-1.2h2.3v-1.2h2.3v-1.2h2.3v-1.2h2.3v-1.2h2.3v-1.2h2.3v-1.2h2.3v-1.2h2.3v-1.2h2.3v-1.2h2.3v-1.2h2.3v-1.2h2.3v-1.2h2.3v-1.2h2.3v-1.2h1.2v-1.2h2.3v-1.2h2.3v-1.2h2.3v-1.2h1.2v-1.2h2.3v-1.2h2.3v-1.2h2.3v-1.2h1.2v-1.2h2.3v-1.2h2.3v-1.2h1.2v-1.2h2.3v-1.2h2.3v-1.2h2.3v-1.2h1.2v-1.2h2.3v-1.2h2.3v-1.2h2.3v-1.2h1.2v-1.2h2.3v-1.2h2.3v-1.2h2.3v-1.2h1.2v-1.2h2.3v-1.2h1.2v-1.2h2.3v-1.2h1.2v-1.2h2.3v-1.2h1.2v-1.2h2.3v-1.2h2.3v-1.2h1.2v-1.2h2.3v-1.2h1.2v-1.2h2.3v-1.2h1.2v-1.2h2.3v-1.2h1.2v-1.2h2.3v-1.2h2.3v-1.2h1.2v-1.2h2.3v-1.2h1.2v-1.2h2.3v-1.2h1.2v-1.2h2.3v-1.2h1.2v-1.2h2.3v-1.2h1.2v-1.2h2.3v-1.2h1.2v-1.2h1.2v-1.2h2.3v-1.2h1.2v-1.2h2.3v-1.2h1.2v-1.2h1.2v-1.2h2.3v-1.2h1.2v-1.2h2.3v-1.2h1.2v-1.2h1.2v-1.2h2.3v-1.2h1.2v-1.2h2.3v-1.2h1.2v-1.2h1.2v-1.2h2.3v-1.2h1.2v-1.2h2.3v-1.2h1.2v-1.2h1.2v-1.2h2.3v-1.2h1.2v-1.2h1.2v-1.2h1.2v-1.2h2.3v-1.2h1.2v-1.2h1.2v-1.2h2.3v-1.2h1.2v-1.2h1.2v-1.2h1.2v-1.2h2.3v-1.2h1.2v-1.2h1.2v-1.2h1.2v-1.2h2.3v-1.2h1.2v-1.2h1.2v-1.2h1.2v-1.2h2.3v-1.2h1.2v-1.2h1.2v-1.2h2.3v-1.2h1.2v-1.2h1.2v-1.2h1.2v-1.2h2.3v-1.2h1.2v-1.2h1.2v-1.2h1.2v-1.2h1.2v-1.2h2.3v-1.2h1.2v-1.2h1.2v-1.2h1.2v-1.2h1.2v-1.2h1.2v-1.2h1.2v-1.2h2.3v-1.2h1.2v-1.2h1.2v-1.2h1.2v-1.2h1.2v-1.2h1.2v-1.2h1.2v-1.2h2.3v-1.2h1.2v-1.2h1.2v-1.2h1.2v-1.2h1.2v-1.2h1.2v-1.2h2.3v-1.2h1.2v-1.2h1.2v-1.2h1.2v-1.2h1.2v-1.2h1.2v-1.2h1.2v-1.2h1.2v-1.2h1.2v-1.2h2.3v-1.2h1.2v-1.2h1.2v-1.2h1.2v-1.2h1.2v-1.2h1.2v-1.2h1.2v-1.2h1.2v-1.2h1.2v-1.2h1.2v-1.2h1.2v-1.2h1.2v-1.2h1.2v-1.2h1.2v-1.2h1.2v-1.2h1.2v-1.2h1.2v-1.2h1.2v-1.2h1.2v-1.2h1.2v-1.2h1.2v-1.2h1.2v-1.2h1.2v-1.2h2.3v-1.2h1.2v-1.2h1.2v-1.2h1.2v-1.2h1.2v-1.2h1.2v-1.2h1.2v-1.2h1.2v-1.2h1.2v-1.2h1.2v-2.3h1.2v-1.2h1.2v-1.2h1.2v-1.2h1.2v-1.2h1.2v-1.2h1.2v-1.2h1.2v-1.2h1.2v-1.2h1.2v-1.2h1.2v-1.2h1.2v-1.2h1.2v-1.2h1.2v-1.2h1.2v-1.2h1.2v-1.2h1.2v-1.2h1.2v-1.2h1.2v-1.2h1.2v-2.3h1.2v-1.2h1.2v-1.2h1.2v-1.2h1.2v-1.2h1.2v-1.2h1.2v-1.2h1.2v-1.2h1.2v-1.2h1.2v-1.2h1.2v-1.2h1.2v-2.3h1.2v-1.2h1.2v-1.2h1.2v-1.2h1.2v-1.2h1.2v-1.2h1.2v-2.3h1.2v-1.2h1.2v-1.2h1.2v-1.2h1.2v-1.2h1.2v-1.2h1.2v-1.2h1.2v-2.3h1.2v-1.2h1.2v-1.2h1.2v-1.2h1.2v-1.2h1.2v-1.2h1.2v-2.3h1.2v-1.2h1.2v-1.2h1.2v-1.2h1.2v-1.2h1.2v-1.2h1.2v-2.3h1.2v-1.2h1.2v-1.2h1.2v-1.2h1.2v-2.3h1.2v-1.2h1.2v-1.2h1.2v-1.2h1.2v-2.3h1.2v-1.2h1.2v-1.2h1.2v-2.3h1.2v-1.2h1.2v-1.2h1.2v-1.2h1.2v-2.3h1.2v-1.2h1.2v-1.2h1.2v-2.3h1.2v-1.2h1.2v-1.2h1.2v-1.2h1.2v-2.3h1.2v-1.2h1.2v-1.2h1.2v-1.2h1.2v-2.3h1.2v-1.2h1.2v-1.2h1.2v-2.3h1.2v-1.2h1.2v-2.3h1.2v-1.2h1.2v-1.2h1.2v-2.3h1.2v-1.2h1.2v-2.3h1.2v-1.2h1.2v-1.2h1.2v-2.3h1.2v-1.2h1.2v-2.3h1.2v-1.2h1.2v-1.2h1.2v-2.3h1.2v-1.2h1.2v-2.3h1.2v-1.2h1.2v-2.3h1.2v-1.2h1.2v-1.2h1.2v-2.3h1.2v-1.2h1.2v-2.3h1.2v-1.2h1.2v-2.3h1.2v-1.2h1.2v-2.3h1.2v-1.2h1.2v-2.3h1.2v-1.2h1.2v-2.3h1.2v-2.3h1.2v-1.2h1.2v-2.3h1.2v-1.2h1.2v-2.3h1.2v-1.2h1.2v-2.3h1.2v-2.3h1.2v-1.2h1.2v-2.3h1.2v-1.2h1.2v-2.3h1.2v-1.2h1.2v-2.3h1.2v-2.3h1.2v-1.2h1.2v-2.3h1.2v-1.2h1.2v-2.3h1.2v-2.3h1.2v-2.3h1.2v-1.2h1.2v-2.3h1.2v-2.3h1.2v-2.3h1.2v-1.2h1.2v-2.3h1.2v-2.3h1.2v-2.3h1.2v-1.2h1.2v-2.3h1.2v-2.3h1.2v-2.3h1.2v-1.2h1.2v-2.3h1.2v-2.3h1.2v-2.3h1.2v-1.2h1.2v-2.3h1.2v-2.3h1.2v-2.3h1.2v-2.3h1.2v-2.3h1.2v-2.3h1.2v-2.3h1.2v-2.3h1.2v-2.3h1.2v-2.3h1.2v-2.3h1.2v-2.3h1.2v-1.2h1.2v-2.3h1.2v-2.3h1.2v-2.3h1.2v-2.3h1.2v-2.3h1.2v-2.3h1.2v-2.3h1.2v-2.3h1.2v-2.3h1.2v-2.3h1.2v-3.5h1.2v-2.3h1.2v-2.3h1.2v-2.3h1.2v-2.3h1.2v-3.5h1.2v-2.3h1.2v-2.3h1.2v-2.3h1.2v-3.5h1.2v-2.3h1.2v-2.3h1.2v-2.3h1.2v-2.3h1.2v-3.5h1.2v-2.3h1.2v-2.3h1.2v-2.3h1.2v-3.5h1.2v-2.3h1.2v-3.5h1.2v-3.5h1.2v-2.3h1.2v-3.5h1.2v-2.3h1.2v-3.5h1.2v-2.3h1.2v-3.5h1.2v-2.1h1.2v-3.5h1.2v-2.3h1.2v-3.5h1.2v-3.5h1.2v-2.3h1.2v-3.5h1.2v-3.5h1.2v-3.5h1.2v-3.5h1.2v-3.5h1.2v-3.5h1.2v-3.5h1.2v-3.5h1.2v-3.5h1.2v-3.5h1.2v-3.5h1.2v-3.5h1.2v-3.5h1.2v-2.3h1.2v-3.5h1.2v-4.6h1.2v-3.5h1.2v-4.6h1.2v-3.5h1.2v-4.6h1.2v-4.6h1.2v-3.5h1.2v-4.6h1.2v-3.5h1.2v-4.6h1.2v-3.5h1.2v-4.6h1.2v-4.6h1.2v-4.6h1.2v-4.6h1.2v-5.8h1.2v-4.6h1.2v-4.6h1.2v-5.8h1.2v-4.6h1.2v-4.6h1.2v-5.8h1.2v-4.6h1.2v-7h1.2v-5.8h1.2v-7h1.2v-5.8h1.2v-7h1.2v-7h1.2v-5.8h1.2v-7h1.2v-8.1h1.2v-9.3h1.2v-9.3h1.2v-9.3h1.2v-9.3h1.2v-9.3h1.2v-12.8h1.2v-16.3h1.2v-15.1h1.2v-18.6h1.2v-2888h-1.2v-19.7h-1.2v-15.1h-1.2v-15.1h-1.2v-13.9h-1.2v-9.3h-1.2v-9.3h-1.2v-9.3h-1.2v-9.3h-1.2v-9.3h-1.2v-8.1h-1.2v-5.8h-1.2v-7h-1.2v-7h-1.2v-5.8h-1.2v-7h-1.2v-7h-1.2v-5.8h-1.2v-7h-1.2v-4.6h-1.2v-4.6h-1.2v-5.8h-1.2v-4.6h-1.2v-4.6h-1.2v-5.8h-1.2v-4.6h-1.2v-5.8h-1.2v-4.7h-1.2v-4.6h-1.2v-4.6h-1.2v-4.6h-1.2v-3.5h-1.2v-4.6h-1.2v-3.5h-1.2v-4.6h-1.2v-3.5h-1.2v-4.6h-1.2v-3.5h-1.2v-4.6h-1.2v-3.5h-1.2v-4.6h-1.2v-3.5h-1.2v-3.5h-1.2v-3.5h-1.2v-3.5h-1.2v-3.5h-1.2v-3.5h-1.2v-3.5h-1.2v-3.5h-1.2v-3.5h-1.2v-3.5h-1.2v-3.5h-1.2v-3.5h-1.2v-3.5h-1.2v-3.5h-1.2v-3.5h-1.2v-3.5h-1.2v-2.3h-1.2v-3.5h-1.2v-2.3h-1.2v-3.5h-1.2v-2.3h-1.2v-3.5h-1.2v-2.3h-1.2v-3.5h-1.2v-3.5h-1.2v-2.3h-1.2v-3.5h-1.2v-2.3h-1.2v-3.5h-1.2v-2.3h-1.2v-3.5h-1.2v-2.3h-1.2v-3.5h-1.2v-2.3h-1.2v-2.3h-1.2v-2.3h-1.2v-3.5h-1.2v-2.3h-1.2v-2.3h-1.2v-2.3h-1.2v-2.3h-1.2v-3.5h-1.2v-2.3h-1.2v-2.3h-1.2v-2.3h-1.2v-3.5h-1.2v-2.3h-1.2v-2.3h-1.2v-2.3h-1.2v-2.3h-1.2v-3.5h-1.2v-2.3h-1.2v-2.3h-1.2v-2.3h-1.2v-1.2h-1.2v-2.3h-1.2v-2.3h-1.2v-2.3h-1.2v-2.3h-1.2v-2.3h-1.2v-2.3h-1.2v-2.3h-1.2v-2.3h-1.2v-2.3h-1.2v-2.3h-1.2v-2.3h-1.2v-2.3h-1.2v-2.3h-1.2v-2.3h-1.2v-2.3h-1.2v-2.3h-1.2v-2.3h-1.2v-1.2h-1.2v-2.3h-1.2v-2.3h-1.2v-2.3h-1.2v-1.2h-1.2v-2.3h-1.2v-2.3h-1.2v-2.3h-1.2v-1.2h-1.2v-2.3h-1.2v-2.3h-1.2v-2.3h-1.2v-1.2h-1.2v-2.3h-1.2v-2.3h-1.2v-2.3h-1.2v-1.2h-1.2v-2.3h-1.2v-2.3h-1.2v-2.3h-1.2v-1.2h-1.2v-2.3h-1.2v-2.3h-1.2v-1.2h-1.2v-2.3h-1.2v-1.2h-1.2v-2.3h-1.2v-2.3h-1.2v-1.2h-1.2v-2.3h-1.2v-1.2h-1.2v-2.3h-1.2v-1.2h-1.2v-2.3h-1.2v-1.2h-1.2v-2.3h-1.2v-2.3h-1.2v-1.2h-1.2v-2.3h-1.2v-1.2h-1.2v-2.3h-1.2v-1.2h-1.2v-2.3h-1.2v-2.3h-1.2v-1.2h-1.2v-2.3h-1.2v-1.2h-1.2v-2.3h-1.2v-1.2h-1.2v-1.2h-1.2v-2.6h-1.2v-1.2h-1.2v-2.3h-1.2v-1.2h-1.2v-1.2h-1.2v-2.3h-1.2v-1.2h-1.2v-2.3h-1.2v-1.2h-1.2v-2.6h-1.2v-1.2h-1.2v-1.2h-1.2v-2.3h-1.2v-1.2h-1.2v-2.3h-1.2v-1.2h-1.2v-1.2h-1.2v-2.3h-1.2v-1.2h-1.2v-2.3h-1.2v-1.2h-1.2v-1.2h-1.2v-2.3h-1.2v-1.2h-1.2v-1.2h-1.2v-2.3h-1.2v-1.2h-1.2v-1.2h-1.2v-1.2h-1.2v-2.3h-1.2v-1.2h-1.2v-1.2h-1.2v-2.3h-1.2v-1.2h-1.2v-1.2h-1.2v-1.2h-1.2v-2.3h-1.2v-1.2h-1.2v-1.2h-1.2v-1.2h-1.2v-2.3h-1.2v-1.2h-1.2v-1.2h-1.2v-2.3h-1.2v-1.2h-1.2v-1.2h-1.2v-1.2h-1.2v-2.3h-1.2v-1.2h-1.2v-1.2h-1.2v-1.2h-1.2v-2.3h-1.2v-1.2h-1.2v-1.2h-1.2v-1.2h-1.2v-1.2h-1.2v-1.2h-1.2v-2.3h-1.2v-1.2h-1.2v-1.2h-1.2v-1.2h-1.2v-1.2h-1.2v-1.2h-1.2v-1.2h-1.2v-2.3h-1.2v-1.2h-1.2v-1.2h-1.2v-1.2h-1.2v-1.2h-1.2v-1.2h-1.2v-2.3h-1.2v-1.2h-1.2v-1.2h-1.2v-1.2h-1.2v-1.2h-1.2v-1.2h-1.2v-2.3h-1.2v-1.2h-1.2v-1.2h-1.2v-1.2h-1.2v-1.2h-1.2v-1.2h-1.2v-1.2h-1.2v-1.2h-1.2v-1.2h-1.2v-1.2h-1.2v-1.2h-1.2v-1.2h-1.2v-1.2h-1.2v-1.2h-1.2v-2.3h-1.2v-1.2h-1.2v-1.2h-1.2v-1.2h-1.2v-1.2h-1.2v-1.2h-1.2v-1.2h-1.2v-1.2h-1.2v-1.2h-1.2v-1.2h-1.2v-1.2h-1.2v-1.2h-1.2v-1.2h-1.2v-1.2h-1.2v-1.2h-1.2v-1.2h-1.2v-1.2h-1.2v-1.2h-1.2v-1.2h-1.2v-2.3h-2.3v-1.2h-1.2v-1.2h-1.2v-1.2h-1.2v-1.2h-1.2v-1.2h-1.2v-1.2h-1.2v-1.2h-1.2v-1.2h-1.2v-1.2h-1.2v-1.2h-1.2v-1.2h-1.2v-1.2h-1.2v-1.2h-1.2v-1.2h-1.2v-1.2h-1.2v-1.2h-1.2v-1.2h-1.2v-1.2h-1.2v-1.2h-1.2v-1.2h-1.2v-1.2h-1.2v-1.2h-1.2v-1.2h-2.3v-1.2h-1.2v-1.2h-1.2v-1.2h-1.2v-1.2h-1.2v-1.2h-1.2v-1.2h-1.2v-1.2h-1.2v-1.2h-1.2v-1.2h-1.2v-1.2h-1.2v-1.2h-1.2v-1.2h-2.3v-1.2h-1.2v-1.2h-1.2v-1.2h-1.2v-1.2h-1.2v-1.2h-1.2v-1.2h-2.3v-1.2h-1.2v-1.2h-1.2v-1.2h-1.2v-1.2h-1.2v-1.2h-1.2v-1.2h-1.2v-1.2h-2.3v-1.2h-1.2v-1.2h-1.2v-1.2h-1.2v-1.2h-1.2v-1.2h-1.2v-1.2h-1.2v-1.2h-2.3v-1.2h-1.2v-1.2h-1.2v-1.2h-1.2v-1.2h-1.2v-1.2h-1.2v-1.2h-2.3v-1.2h-1.2v-1.2h-1.2v-1.2h-1.2v-1.2h-2.3v-1.2h-1.2v-1.2h-1.2v-1.2h-2.3v-1.2h-1.2v-1.2h-1.2v-1.2h-1.2v-1.2h-2.3v-1.2h-1.2v-1.2h-1.2v-1.2h-1.2v-1.2h-2.3v-1.2h-1.2v-1.2h-1.2v-1.2h-1.2v-1.2h-2.3v-1.2h-1.2v-1.2h-1.2v-1.2h-2.3v-1.2h-1.2v-1.2h-1.2v-1.2h-1.2v-1.2h-2.3v-1.2h-1.2v-1.2h-1.2v-1.2h-2.3v-1.2h-1.2v-1.2h-2.3v-1.2h-1.2v-1.2h-1.2v-1.2h-2.3v-1.2h-1.2v-1.2h-2.3v-1.2h-1.2v-1.2h-1.2v-1.2h-2.3v-1.2h-1.2v-1.2h-2.3v-1.2h-1.2v-1.2h-1.2v-1.2h-2.3v-1.2h-1.2v-1.2h-2.3v-1.2h-1.2v-1.2h-1.2v-1.2h-2.3v-1.2h-1.2v-1.2h-2.3v-1.2h-1.2v-1.2h-2.3v-1.2h-1.2v-1.2h-2.3v-1.2h-1.2v-1.2h-2.3v-1.2h-1.2v-1.2h-2.3v-1.2h-1.2v-1.2h-2.3v-1.2h-2.3v-1.2h-1.2v-1.2h-2.3v-1.2h-1.2v-1.2h-2.3v-1.2h-1.2v-1.2h-2.3v-1.2h-1.2v-1.2h-2.3v-1.2h-1.2v-1.2h-2.3v-1.2h-2.3v-1.2h-1.2v-1.2h-2.3v-1.2h-1.2v-1.2h-2.3v-1.2h-2.3v-1.2h-1.2v-1.2h-2.3v-1.2h-2.3v-1.2h-2.3v-1.2h-1.2v-1.2h-2.3v-1.2h-2.3v-1.2h-1.2v-1.2h-2.3v-1.2h-2.3v-1.2h-2.3v-1.2h-1.2v-1.2h-2.3v-1.2h-2.3v-1.2h-2.3v-1.2h-1.2v-1.2h-2.3v-1.2h-2.3v-1.2h-2.3v-1.2h-1.2v-1.2h-2.3v-1.2h-2.3v-1.2h-2.3v-1.2h-2.3v-1.2h-2.3v-1.2h-2.3v-1.2h-2.3v-1.2h-2.3v-1.2h-2.3v-1.2h-1.2v-1.2h-2.3v-1.2h-2.3v-1.2h-2.3v-1.2h-2.3v-1.2h-2.3v-1.2h-2.3v-1.2h-2.3v-1.2h-2.3v-1.2h-2.3v-1.2h-2.3v-1.2h-2.3v-1.2h-2.3v-1.2h-2.3v-1.2h-2.3v-1.2h-2.3v-1.2h-3.5v-1.2h-2.3v-1.2h-2.3v-1.2h-2.3v-1.2h-2.3v-1.2h-3.5v-1.2h-2.3v-1.2h-2.3v-1.2h-2.3v-1.2h-2.3v-1.2h-3.5v-1.2h-2.3v-1.2h-2.3v-1.2h-2.3v-1.2h-2.3v-1.2h-3.5v-1.2h-2.3v-1.2h-3.5v-1.2h-2.3v-1.2h-3.5v-1.2h-2.3v-1.2h-3.5v-1.2h-3.5v-1.2h-2.3v-1.2h-3.5v-1.2h-2.3v-1.2h-3.5v-1.2h-2.3v-1.2h-3.5v-1.2h-2.3v-1.2h-3.5v-1.2h-2.3v-1.2h-3.5v-1.2h-3.5v-1.2h-3.5v-1.2h-3.5v-1.2h-3.5v-1.2h-3.5v-1.2h-3.5v-1.2h-3.5v-1.2h-3.5v-1.2h-3.5v-1.2h-3.5v-1.2h-2.3v-1.2h-3.5v-1.2h-3.5v-1.2h-3.5v-1.2h-4.7v-1.2h-3.5v-1.2h-4.7v-1.2h-3.5v-1.2h-4.7v-1.2h-3.5v-1.2h-4.7v-1.2h-3.5v-1.2h-4.7v-1.2h-3.5v-1.2h-4.9v-1.2h-3.5v-1.2h-4.7v-1.2h-5.9v-1.2h-4.7v-1.2h-4.7v-1.2h-5.9v-1.2h-4.7v-1.2h-4.7v-1.2h-4.7v-1.2h-5.9v-1.2h-4.7v-1.2h-4.7v-1.2h-7v-1.2h-7v-1.2h-5.9v-1.2h-7v-1.2h-5.9v-1.2h-7v-1.2h-5.9v-1.2h-7v-1.2h-8.2v-1.2h-9.4v-1.2h-9.4v-1.2h-9.4v-1.2h-9.4v-1.2h-9.4v-1.2h-14.1v-1.2h-15.2v-1.2h-15.2v-1.2h-22.3v-1.2" clip-path="url(#clipPath)" transform="matrix(0.17563291,0,0,0.17563291,-0.4756536,-0.4698134)"/>
        <path d="m626.1 254.1c0-76.9-62.4-139.3-139.3-139.3h-224.8c-76.9 0-139.3 62.4-139.3 139.3v239.8c0 76.9 62.4 139.3 139.3 139.3h224.8c76.9 0 139.3-62.4 139.3-139.3z" style="fill:none;stroke-width:61.4;stroke:#fff"/>
        <path d="M498 374.8c-1.5-68.2-55.3-123.6-123.6-123.6-68.3 0-123.6 55.3-123.6 123.6 0 68.3 55.4 125.6 123.6 123.6 83.1-2.4 125.1-55.6 123.6-123.6z" style="fill:none;stroke-width:75;stroke:#fff"/>
        <path d="m561.3 527.6c0-19.1-15.5-34.7-34.7-34.7-19.1 0-34.7 15.5-34.7 34.7 0 19.1 15.5 34.7 34.7 34.7 19.1 0 34.7-15.5 34.7-34.7" fill="#fff"/>
      </g>
    </g>
  </g>
</svg>
