<svg xmlns="http://www.w3.org/2000/svg" version="1.1" viewBox="0 0 100 100"><defs><radialGradient id="c" gradientUnits="userSpaceOnUse" cy="578" cx="158" gradientTransform="matrix(0,-1.5246534,1.4184343,0,-793.40654,349.24666)" r="65"><stop stop-color="#fd5" offset="0"/><stop stop-color="#fd5" offset="0.1"/><stop stop-color="#ff543e" offset="0.5"/><stop stop-color="#c837ab" offset="1"/></radialGradient><radialGradient id="d" gradientUnits="userSpaceOnUse" cy="473" cx="148" gradientTransform="matrix(0.13380468,0.66826955,-2.7553272,0.55169623,1268.0055,-352.71992)" r="65"><stop stop-color="#3771c8" offset="0"/><stop stop-color="#3771c8" offset="0.13"/><stop stop-color="#60f" stop-opacity="0" offset="1"/></radialGradient></defs><path d="M50 0c-16.6 0.12-49.3 0-50 0v100c0.8 0 72.2 0.09 100 0 0-1.02 0.01-66.8 0-100-0.83 0-34.9 0.28-50 0z" fill="url(#c)"/><path d="m0 0v100h100v-100c-1.95 0-98.9 0.01-100 0z" fill="url(#d)"/><path d="m50 13.1c-10 0-11.3 0.04-15.2 0.22-3.93 0.18-6.61 0.8-8.96 1.72-2.43 0.94-4.49 2.2-6.54 4.26-2.05 2.05-3.32 4.11-4.26 6.54-0.91 2.35-1.54 5.03-1.72 8.96-0.18 3.94-0.22 5.2-0.22 15.2s0.04 11.3 0.22 15.2c0.18 3.93 0.8 6.61 1.72 8.96 0.94 2.43 2.21 4.49 4.26 6.54s4.11 3.32 6.54 4.26c2.35 0.91 5.03 1.54 8.96 1.72 3.94 0.18 5.2 0.22 15.2 0.22s11.3-0.04 15.2-0.22c3.93-0.18 6.62-0.8 8.97-1.72 2.43-0.94 4.48-2.21 6.54-4.26 2.05-2.05 3.32-4.11 4.26-6.54 0.91-2.35 1.53-5.03 1.72-8.96 0.18-3.94 0.22-5.19 0.22-15.2s-0.05-11.3-0.22-15.2c-0.18-3.93-0.81-6.61-1.72-8.96-0.95-2.43-2.21-4.49-4.26-6.54s-4.11-3.32-6.54-4.26c-2.4-0.9-5.1-1.5-9-1.7s-5.2-0.2-15.2-0.2zm-3.31 6.65c0.98 0 2.08 0 3.31 0 9.86 0 11 0.04 14.9 0.21 3.6 0.17 5.55 0.77 6.86 1.27 1.72 0.67 2.95 1.47 4.24 2.76s2.09 2.52 2.76 4.25c0.51 1.3 1.11 3.25 1.27 6.85 0.18 3.89 0.22 5.06 0.22 14.9 0 9.85-0.04 11-0.21 14.9-0.16 3.6-0.77 5.55-1.27 6.85-0.67 1.72-1.47 2.95-2.76 4.24s-2.52 2.09-4.24 2.76c-1.3 0.51-3.26 1.11-6.86 1.27-3.89 0.18-5.06 0.22-14.9 0.22-9.86 0-11-0.04-14.9-0.21-3.6-0.2-5.6-0.8-6.9-1.3-1.7-0.7-2.9-1.5-4.2-2.8s-2.1-2.5-2.8-4.2c-0.5-1.3-1.1-3.3-1.3-6.9-0.1-3.9-0.2-5.1-0.2-14.9 0-9.86 0.04-11 0.21-14.9 0.17-3.6 0.77-5.55 1.27-6.86 0.67-1.72 1.47-2.95 2.76-4.25 1.29-1.29 2.52-2.09 4.25-2.76 1.3-0.51 3.26-1.11 6.86-1.27 3.41-0.15 4.73-0.2 11.6-0.21zm23 6.13c-2.45 0-4.43 1.98-4.43 4.43s1.98 4.43 4.43 4.43 4.43-1.98 4.43-4.43-1.98-4.43-4.43-4.43zm-19.7 5.18c-10.5 0-19 8.49-19 19s8.49 19 19 19 19-8.49 19-19-8.49-19-19-19zm0 6.65c6.8 0 12.3 5.51 12.3 12.3 0 6.8-5.51 12.3-12.3 12.3-6.8 0-12.3-5.51-12.3-12.3 0-6.8 5.51-12.3 12.3-12.3z" fill="#fff"/></svg>