<svg xmlns="http://www.w3.org/2000/svg" version="1.1" viewBox="0 0 100 100">
  <g transform="translate(-212.89943,-333.74896)">
    <path fill="#0977b6" d="m212.9,433.7,100,0,0-100-100,0,0,100z"/>
    <path fill="#FFF" d="m237.43,347.83c4.6001,0,8.3367,3.738,8.3367,8.338,0,4.6041-3.7366,8.3426-8.3367,8.3426-4.6095,0-8.3414-3.7385-8.3414-8.3426,0-4.6001,3.7319-8.338,8.3414-8.338m-7.1951,23.008,14.385,0,0,46.284-14.385,0,0-46.284"/>
    <path fill="#FFF" d="m253.64,370.84,13.8,0,0,6.3237,0.19128,0c1.9195-3.6388,6.6125-7.4757,13.61-7.4757,14.567,0,17.256,9.5865,17.256,22.048v25.388h-14.375v-22.508c0-5.37-0.099-12.274-7.4753-12.274-7.4861,0-8.6324,5.8477-8.6324,11.885v22.897h-14.375v-46.284"/>
  </g>
</svg>
