<svg xmlns="http://www.w3.org/2000/svg" version="1.1" viewBox="0 0 100 100">
  <g transform="translate(-212.89943,-333.74896)">
    <path fill="#0977b6" d="m212.9 433.7 100 0 0-100-100 0 0 100zM237.4 347.8 237.4 347.8"/>
    <path fill="#FFF" d="m237.4 347.8c4.6 0 8.3 3.7 8.3 8.3 0 4.6-3.7 8.3-8.3 8.3-4.6 0-8.3-3.7-8.3-8.3 0-4.6 3.7-8.3 8.3-8.3m-7.2 23 14.4 0 0 46.3-14.4 0 0-46.3"/>
    <path fill="#FFF" d="m253.6 370.8 13.8 0 0 6.3 0.2 0c1.9-3.6 6.6-7.5 13.6-7.5 14.6 0 17.3 9.6 17.3 22v25.4h-14.4v-22.5c0-5.4-0.1-12.3-7.5-12.3-7.5 0-8.6 5.8-8.6 11.9v22.9h-14.4v-46.3"/>
  </g>
</svg>
