<svg xmlns="http://www.w3.org/2000/svg" version="1.1" viewBox="0 0 100 100">
	<g transform="translate(-212.89943,-333.74896)">
		<path fill="#00ccbb" d="m212.9,433.7,100.03,0,0-100-100.03,0,0,100z"/>
		<g fill="#FFF" transform="matrix(0.64251556,0,0,-0.64251556,226.1904,422.71333)">
			<g fill="#FFF" transform="translate(78.4194,86.3021)">
				<path fill="#FFF" d="m0,0c-0.144,0.767-0.276,1.667-0.396,2.698s-0.203,2.266-0.251,3.704c-0.048,1.439-0.072,3.166-0.072,5.18s0.024,3.741,0.072,5.179c0.048,1.439,0.131,2.674,0.251,3.705s0.252,1.93,0.396,2.698c0.144,0.767,0.336,1.51,0.576,2.23,1.246,3.789,3.309,6.642,6.186,8.56,2.878,1.919,6.403,2.878,10.575,2.878,2.158,0,4.1-0.252,5.827-0.755,1.726-0.504,3.261-1.199,4.604-2.087,1.343-0.887,2.494-1.918,3.453-3.093s1.75-2.434,2.374-3.777c0.24-0.431,0.168-0.767-0.216-1.007l-5.316-2.196c-0.432-0.24-0.768-0.12-1.008,0.36-1.198,2.206-2.213,3.659-3.891,4.714-1.679,1.055-3.237,1.545-5.827,1.545-2.782,0-4.048-0.549-5.798-1.796-1.751-1.247-3.01-2.795-3.777-5.145-0.144-0.431-0.288-0.959-0.432-1.582-0.143-0.624-0.251-1.391-0.323-2.302s-0.132-2.026-0.18-3.345-0.072-2.914-0.072-4.784,0.024-3.465,0.072-4.784,0.108-2.434,0.18-3.345,0.18-1.679,0.323-2.302c0.144-0.623,0.288-1.151,0.432-1.583,0.767-2.35,1.842-3.632,3.411-4.667,1.568-1.034,3.382-1.798,6.164-1.798,2.494,0,4.775,0.71,6.255,1.789s2.696,2.504,3.248,4.461c0.24,0.815,0.555,1.846,0.747,3.093s0.188,2.581,0.188,4.404c0,0.288-0.144,0.431-0.432,0.431h-8.495c-0.48,0-0.72,0.24-0.72,0.72v4.872c0,0.48,0.24,0.72,0.72,0.72h15.61c0.48,0,0.719-0.24,0.719-0.72v-4.169c0-2.206-0.008-4.256-0.223-6.15-0.216-1.895-0.516-3.541-0.9-4.74-1.199-3.741-3.09-6.416-5.991-8.406-2.902-1.99-6.65-3.076-10.726-3.076-4.172,0-7.697,0.959-10.575,2.877-2.877,1.919-4.94,4.772-6.186,8.561-0.24,0.719-0.432,1.463-0.576,2.23m-44.561-36.852c-4.964,0-7.154,0.146-10.512,0.438v36.646c3.358,0.292,7.884,0.292,11.826,0.292,12.264,0,19.564-6.424,19.564-18.104,0-11.534-7.884-19.272-20.878-19.272m42.486-48.618c2.482,0,5.11,0.438,6.716,1.168v3.796c-5.256,0-10.512,3.65-14.308,7.738-6.424,7.008-15.038,18.25-22.192,30.952,11.826,2.774,20.586,13.87,20.586,24.966,0,16.352-12.702,23.944-29.346,23.944-8.614,0-15.476-0.438-21.9-0.438-5.84,0-11.68,0-15.33,0.146v-4.234l5.548-1.022c3.796-0.73,5.986-2.482,5.986-11.534v-57.524c0-9.052-2.19-10.804-5.986-11.534l-5.548-1.022v-4.234c3.942,0.146,10.804,0.438,17.666,0.438,6.57,0,15.038-0.292,18.688-0.438v4.234l-7.592,1.022c-3.942,0.584-5.986,2.482-5.986,11.534v24.382c3.504-0.292,6.57-0.292,11.242-0.292,8.906-15.914,17.374-27.886,22.192-33.434,4.38-5.256,11.096-8.614,19.564-8.614"/>
			</g>
		</g>
	</g>
</svg>
