<svg xmlns="http://www.w3.org/2000/svg" viewBox="0 0 100 100">
  <path fill="#0cb" d="M0 99.95h100v-100H0v100z"/>
  <path fill="#FFF" d="M63.68 33.5c-.07-.5-.2-1.08-.26-1.72l-.2-2.38c0-.9-.06-2.05-.06-3.34s0-2.38.07-3.34c0-.9.06-1.74.2-2.38s.18-1.22.25-1.73c.06-.5.2-.9.38-1.4.77-2.4 2.12-4.2 4-5.5 1.85-1.2 4.1-1.8 6.8-1.8 1.4 0 2.63.2 3.72.5 1.1.3 2.12.8 2.96 1.4.83.6 1.6 1.2 2.25 2s1.1 1.55 1.5 2.45c.1.26.1.5-.2.64l-3.4 1.4c-.3.14-.58.07-.7-.25-.78-1.4-1.4-2.4-2.5-3.04-1.1-.7-2.07-.95-3.74-.95-1.8 0-2.57.3-3.73 1.17-1.16.77-1.93 1.8-2.45 3.28-.08.26-.2.64-.27 1.03-.06.38-.2.9-.2 1.48s-.05 1.3-.12 2.14-.02 1.8-.02 3.03 0 2.24.05 3.07.06 1.5.1 2.1.14 1.1.2 1.43c.07.4.2.77.26 1.03.5 1.46 1.15 2.3 2.2 3 1 .63 2.16 1.15 3.96 1.15 1.6 0 3.1-.42 4.06-1.13s1.72-1.62 2.04-2.9c.14-.5.4-1.16.46-2s.12-1.66.12-2.82c0-.2-.08-.26-.27-.26h-5.4c-.3 0-.44-.18-.44-.5v-3.1c0-.34.14-.46.46-.46h10.1c.34 0 .47.12.47.45v2.7c0 1.4 0 2.77-.13 3.9-.12 1.24-.3 2.27-.57 3.04-.77 2.38-2 4.12-3.85 5.4-1.9 1.3-4.27 2-6.9 2-2.7 0-4.95-.65-6.8-1.87-1.87-1.26-3.16-3.1-4-5.57l-.38-1.4M35.07 57.1c-3.2 0-4.62-.06-6.74-.25V33.4c2.18-.2 5.07-.2 7.58-.2 7.9 0 12.6 4.1 12.6 11.62 0 7.4-5.06 12.4-13.42 12.4m27.3 31.23c1.62 0 3.3-.26 4.32-.77v-2.44c-3.4 0-6.76-2.38-9.2-4.95-4.1-4.5-9.64-11.8-14.27-20 7.6-1.8 13.24-9 13.24-16.1 0-10.58-8.16-15.4-18.83-15.4-5.52 0-9.95.26-14.07.26-3.72 0-7.5 0-9.83-.05v2.7l3.54.66c2.4.46 3.8 1.6 3.8 7.4v37c0 5.83-1.4 6.92-3.9 7.4l-3.6.6v2.7c2.5-.05 6.95-.25 11.4-.25 4.24 0 9.63.2 12 .24v-2.7l-4.87-.65c-2.5-.4-3.85-1.6-3.85-7.4V61.1c2.25.2 4.24.2 7.2.2 5.72 10.2 11.2 17.9 14.26 21.45 2.83 3.4 7.13 5.5 12.6 5.5"/>
</svg>
