<svg xmlns="http://www.w3.org/2000/svg" version="1.1" viewBox="0 0 100 100">
  <g transform="translate(-212.89943,-333.74896)">
    <path fill="#00ccbb" d="m212.9 433.7 100 0 0-100-100 0 0 100z"/>
    <g fill="#FFF" transform="matrix(0.64251556,0,0,-0.64251556,226.1904,422.71333)">
      <g fill="#FFF" transform="translate(78.4194,86.3021)">
        <path fill="#FFF" d="m0 0c-0.1 0.8-0.3 1.7-0.4 2.7s-0.2 2.3-0.3 3.7c0 1.4-0.1 3.2-0.1 5.2s0 3.7 0.1 5.2c0 1.4 0.1 2.7 0.3 3.7s0.3 1.9 0.4 2.7c0.1 0.8 0.3 1.5 0.6 2.2 1.2 3.8 3.3 6.6 6.2 8.6 2.9 1.9 6.4 2.9 10.6 2.9 2.2 0 4.1-0.3 5.8-0.8 1.7-0.5 3.3-1.2 4.6-2.1 1.3-0.9 2.5-1.9 3.5-3.1s1.8-2.4 2.4-3.8c0.2-0.4 0.2-0.8-0.2-1l-5.3-2.2c-0.4-0.2-0.8-0.1-1 0.4-1.2 2.2-2.2 3.7-3.9 4.7-1.7 1.1-3.2 1.5-5.8 1.5-2.8 0-4-0.5-5.8-1.8-1.8-1.2-3-2.8-3.8-5.1-0.1-0.4-0.3-1-0.4-1.6-0.1-0.6-0.3-1.4-0.3-2.3s-0.1-2-0.2-3.3-0.1-2.9-0.1-4.8 0-3.5 0.1-4.8 0.1-2.4 0.2-3.3 0.2-1.7 0.3-2.3c0.1-0.6 0.3-1.2 0.4-1.6 0.8-2.3 1.8-3.6 3.4-4.7 1.6-1 3.4-1.8 6.2-1.8 2.5 0 4.8 0.7 6.3 1.8s2.7 2.5 3.2 4.5c0.2 0.8 0.6 1.8 0.7 3.1s0.2 2.6 0.2 4.4c0 0.3-0.1 0.4-0.4 0.4h-8.5c-0.5 0-0.7 0.2-0.7 0.7v4.9c0 0.5 0.2 0.7 0.7 0.7h15.6c0.5 0 0.7-0.2 0.7-0.7v-4.2c0-2.2 0-4.3-0.2-6.1-0.2-1.9-0.5-3.5-0.9-4.7-1.2-3.7-3.1-6.4-6-8.4-2.9-2-6.6-3.1-10.7-3.1-4.2 0-7.7 1-10.6 2.9-2.9 1.9-4.9 4.8-6.2 8.6-0.2 0.7-0.4 1.5-0.6 2.2m-44.6-36.9c-5 0-7.2 0.1-10.5 0.4v36.6c3.4 0.3 7.9 0.3 11.8 0.3 12.3 0 19.6-6.4 19.6-18.1 0-11.5-7.9-19.3-20.9-19.3m42.5-48.6c2.5 0 5.1 0.4 6.7 1.2v3.8c-5.3 0-10.5 3.7-14.3 7.7-6.4 7-15 18.3-22.2 31 11.8 2.8 20.6 13.9 20.6 25 0 16.4-12.7 23.9-29.3 23.9-8.6 0-15.5-0.4-21.9-0.4-5.8 0-11.7 0-15.3 0.1v-4.2l5.5-1c3.8-0.7 6-2.5 6-11.5v-57.5c0-9.1-2.2-10.8-6-11.5l-5.5-1v-4.2c3.9 0.1 10.8 0.4 17.7 0.4 6.6 0 15-0.3 18.7-0.4v4.2l-7.6 1c-3.9 0.6-6 2.5-6 11.5v24.4c3.5-0.3 6.6-0.3 11.2-0.3 8.9-15.9 17.4-27.9 22.2-33.4 4.4-5.3 11.1-8.6 19.6-8.6"/>
      </g>
    </g>
  </g>
</svg>
