<svg xmlns="http://www.w3.org/2000/svg" version="1.1" viewBox="0 0 100 100">
  <g transform="translate(-287.1844,-473.74896)">
    <path fill="#f7e919" d="m287.2 573.7 100 0 0-100-100 0 0 100zM354 525.6"/>
    <path fill="#FFF" d="m354 525.6c0.7-4 6.6-2.3 8.1-6-1.8-2.8-6.5 2.1-8.6-1.2 0.5-1.7 0.2-4 0.3-6v-4c-0.7-8.9-5.9-13.3-14.4-14.4h-4.3c-12.2 0.8-16.4 10.7-14.4 24.8-2.2 2.7-6.7-1.6-8.6 0.9 1.6 3.7 7.3 2 8.1 6 0.6 3.1-2.7 7.5-4.9 9.8-2.8 2.8-6.7 4.5-9.8 5.2 1.4 2.4 5.5 2.1 8.4 3.2 0.6 1.1 1.1 2.4 1.2 4 9.8-3.3 13.6 4.2 19.3 5.5 9.6 2.2 12.5-8.7 25.1-5.5 0.5-1.4 0.5-3.2 1.4-4 2.9-0.9 6.7-1 8.4-3.2-6.4-0.8-16-9.2-15-15"/>
  </g>
</svg>
