<svg xmlns="http://www.w3.org/2000/svg" version="1.1" viewBox="0 0 100 100">
 <g transform="translate(-287.1844,-473.74896)">
  <path fill="#f7e919" d="m287.2,573.7,100,0,0-100-100,0,0,100z"/>
  <path fill="#FFF" d="m354,525.6c0.7033-3.968,6.604-2.326,8.065-6.048-1.767-2.832-6.471,2.127-8.642-1.152,0.4604-1.653,0.2442-3.983,0.2893-6.049v-4.034c-0.7033-8.898-5.897-13.31-14.4-14.4h-4.32c-12.21,0.7564-16.41,10.72-14.4,24.77-2.203,2.67-6.72-1.583-8.644,0.8652,1.55,3.707,7.335,2.014,8.068,6.048,0.5573,3.072-2.683,7.528-4.896,9.794-2.777,2.84-6.718,4.501-9.795,5.186,1.413,2.427,5.537,2.144,8.354,3.167,0.5852,1.142,1.071,2.387,1.152,4.033,9.815-3.341,13.63,4.176,19.3,5.474,9.561,2.188,12.49-8.711,25.06-5.474,0.4538-1.368,0.475-3.173,1.44-4.033,2.926-0.9129,6.726-0.9554,8.353-3.167-6.369-0.8479-16-9.234-14.98-14.98"/>
 </g>
</svg>
