<svg xmlns="http://www.w3.org/2000/svg" version="1.1" viewBox="0 0 100 100">
 <g transform="translate(-467.18584,-396.60585)">
  <path fill="#e6120e" d="m467.2,496.6,100,0,0-100-100,0,0,100z"/>
  <path fill="#FFF" d="m545.3,462.7c1.036-1.204,1.186-1.945,1.192-5.89,0.009-6.224,0.1756-6.661,2.681-7.062,2.436-0.3895,5.509-1.865,6.755-3.243,2.631-2.909,3.799-9.183,2.438-13.09-0.5684-1.63-2.7-3.176-4.381-3.176-1.687,0-4.472,1.739-5.715,3.568l-1.266,1.863v-1.992c0-1.516-0.1777-1.924-0.7434-1.707-0.4089,0.1569-2.153,0.4448-3.877,0.6397l-3.133,0.3545-0.1457,5.983-0.1456,5.983-1.928,0.9997c-1.061,0.5498-2.17,0.8504-2.465,0.6679-0.3226-0.1994-0.5368-2.878-0.5368-6.715v-6.384l-3.763,0.8533-3.763,0.8533-0.1462,5.772c-0.1404,5.539-0.1996,5.806-1.469,6.638-2.47,1.618-2.796,0.919-2.796-5.988v-6.29l-2.206,0.3394c-1.213,0.1866-2.965,0.4667-3.892,0.6224l-1.687,0.283v6.974c0,8.697,0.7421,10.56,4.215,10.56,1.642,0,5.01-1.96,6.25-3.637,1.351-1.827,1.802-1.927,2.255-0.501,0.1836,0.5785,0.9105,1.43,1.615,1.892,1.861,1.219,4.874,0.1724,8.047-2.795l2.529-2.366-0.007,5.91c-0.009,7.161-0.4871,8.436-3.248,8.666-2.197,0.183-2.475,0.8094-0.7665,1.727,3.548,1.906,8.323,1.76,10.1-0.3092zm2.05-16.2c-0.1903-0.1903-0.1822-2.251-0.1822-4.62,0-4.591,0.2859-5.414,2.898-5.414,2.839,0,2.89,6.504,0.0732,9.321-1.07,1.07-2.154,1.347-2.789,0.7127zm-61.29,11.82c2.806-1.275,4.371-3.33,4.371-5.742,0-2.269-1.087-3.433-5.06-5.421-1.499-0.7499-2.725-1.702-2.725-2.115,0-1.173,1.967-1.939,4.467-1.74,2.054,0.1634,2.28,0.0689,2.28-0.9529,0-1.63-4.449-2.626-7.756-1.735-3.124,0.8412-5.737,3.487-5.737,5.809,0,2.368,1.035,3.685,4.416,5.619,3.254,1.862,3.74,3.304,1.423,4.22-1.094,0.4325-1.942,0.3841-3.633-0.208-2.17-0.7597-2.206-0.7533-2.206,0.3963,0,2.593,6.098,3.716,10.16,1.871zm18.26-2.402c4.988-1.481,7.871-5.268,7.892-10.37,0.0209-5.138-2.857-8.042-7.972-8.043-7.649-0.002-12.9,5.364-12.11,12.38,0.3084,2.736,1.645,4.692,4.04,5.914,2.191,1.117,4.663,1.153,8.148,0.1178zm-4.015-2.807c-0.7034-1.314-0.6932-9.417,0.0142-11.28,0.8661-2.278,1.978-2.761,3.304-1.434,0.6312,0.6312,0.8156,1.973,0.8156,5.934,0,6.121-0.4918,7.781-2.304,7.781-0.7462,0-1.519-0.424-1.829-1.004z"/>
 </g>
</svg>
