<svg xmlns="http://www.w3.org/2000/svg" viewBox="0 0 100 100">
  <path fill="#e6120e" d="M0 100h100V0H0v100z"/>
  <path fill="#FFF" d="M78.1 66.1c1.05-1.2 1.2-1.95 1.2-5.9.02-6.22.18-6.66 2.7-7.06 2.42-.4 5.5-1.86 6.74-3.24 2.63-2.9 3.8-9.18 2.44-13.1-.57-1.62-2.7-3.17-4.38-3.17-1.7 0-4.47 1.74-5.72 3.57l-1.26 1.86v-2c0-1.5-.18-1.9-.75-1.7-.4.16-2.15.45-3.87.64l-3.14.36-.14 5.98-.15 6-1.92 1c-1.07.53-2.17.84-2.47.65-.32-.2-.54-2.9-.54-6.8v-6.4l-3.76.8-3.76.82-.15 5.76c-.14 5.54-.2 5.8-1.47 6.64-2.47 1.65-2.8.95-2.8-5.96v-6.3l-2.2.33-3.9.63-1.68.3v7c0 8.7.74 10.55 4.22 10.55 1.64 0 5-1.95 6.25-3.63 1.3-1.8 1.8-1.9 2.2-.5.2.6.9 1.44 1.6 1.9 1.8 1.2 4.8.2 8-2.8l2.6-2.3V56c0 7.18-.5 8.45-3.3 8.68-2.2.18-2.5.8-.8 1.73 3.55 1.9 8.32 1.8 10.1-.3zm2.06-16.2c-.2-.2-.18-2.26-.18-4.63 0-4.6.3-5.4 2.9-5.4 2.84 0 2.9 6.5.07 9.3-1.07 1.08-2.15 1.36-2.8.72zm-61.3 11.8c2.82-1.26 4.4-3.32 4.4-5.73 0-2.27-1.1-3.43-5.07-5.42-1.5-.75-2.8-1.7-2.8-2.1 0-1.2 1.9-1.95 4.4-1.75 2 .16 2.3.07 2.3-.96 0-1.63-4.5-2.62-7.8-1.73-3.1.9-5.76 3.5-5.76 5.9S9.6 53.6 13 55.5c3.24 1.9 3.73 3.3 1.4 4.2-1.1.5-1.93.4-3.6-.2-2.2-.7-2.2-.7-2.2.4 0 2.6 6.1 3.7 10.12 1.9zm18.27-2.4c5-1.47 7.88-5.26 7.9-10.36.02-5.14-2.86-8.04-7.98-8.04-7.64 0-12.9 5.36-12.1 12.38.3 2.74 1.64 4.7 4.03 5.9 2.2 1.13 4.67 1.17 8.15.13zm-4-2.8c-.7-1.3-.7-9.4 0-11.27.87-2.28 1.98-2.77 3.3-1.44.64.6.82 1.9.82 5.9 0 6.1-.5 7.8-2.3 7.8-.75 0-1.52-.5-1.83-1z"/>
</svg>
