<svg xmlns="http://www.w3.org/2000/svg" version="1.1" viewBox="0 0 100 100">
  <g transform="translate(-467.18584,-396.60585)">
    <path fill="#e6120e" d="m467.2 496.6 100 0 0-100-100 0 0 100zM545.3 462.7"/>
    <path fill="#FFF" d="m545.3 462.7c1-1.2 1.2-1.9 1.2-5.9 0-6.2 0.2-6.7 2.7-7.1 2.4-0.4 5.5-1.9 6.8-3.2 2.6-2.9 3.8-9.2 2.4-13.1-0.6-1.6-2.7-3.2-4.4-3.2-1.7 0-4.5 1.7-5.7 3.6l-1.3 1.9v-2c0-1.5-0.2-1.9-0.7-1.7-0.4 0.2-2.2 0.4-3.9 0.6l-3.1 0.4-0.1 6-0.1 6-1.9 1c-1.1 0.5-2.2 0.9-2.5 0.7-0.3-0.2-0.5-2.9-0.5-6.7v-6.4l-3.8 0.9-3.8 0.9-0.1 5.8c-0.1 5.5-0.2 5.8-1.5 6.6-2.5 1.6-2.8 0.9-2.8-6v-6.3l-2.2 0.3c-1.2 0.2-3 0.5-3.9 0.6l-1.7 0.3v7c0 8.7 0.7 10.6 4.2 10.6 1.6 0 5-2 6.3-3.6 1.4-1.8 1.8-1.9 2.3-0.5 0.2 0.6 0.9 1.4 1.6 1.9 1.9 1.2 4.9 0.2 8-2.8l2.5-2.4 0 5.9c0 7.2-0.5 8.4-3.2 8.7-2.2 0.2-2.5 0.8-0.8 1.7 3.5 1.9 8.3 1.8 10.1-0.3zm2.1-16.2c-0.2-0.2-0.2-2.3-0.2-4.6 0-4.6 0.3-5.4 2.9-5.4 2.8 0 2.9 6.5 0.1 9.3-1.1 1.1-2.2 1.3-2.8 0.7zm-61.3 11.8c2.8-1.3 4.4-3.3 4.4-5.7 0-2.3-1.1-3.4-5.1-5.4-1.5-0.7-2.7-1.7-2.7-2.1 0-1.2 2-1.9 4.5-1.7 2.1 0.2 2.3 0.1 2.3-1 0-1.6-4.4-2.6-7.8-1.7-3.1 0.8-5.7 3.5-5.7 5.8 0 2.4 1 3.7 4.4 5.6 3.3 1.9 3.7 3.3 1.4 4.2-1.1 0.4-1.9 0.4-3.6-0.2-2.2-0.8-2.2-0.8-2.2 0.4 0 2.6 6.1 3.7 10.2 1.9zm18.3-2.4c5-1.5 7.9-5.3 7.9-10.4 0-5.1-2.9-8-8-8-7.6 0-12.9 5.4-12.1 12.4 0.3 2.7 1.6 4.7 4 5.9 2.2 1.1 4.7 1.2 8.1 0.1zm-4-2.8c-0.7-1.3-0.7-9.4 0-11.3 0.9-2.3 2-2.8 3.3-1.4 0.6 0.6 0.8 2 0.8 5.9 0 6.1-0.5 7.8-2.3 7.8-0.7 0-1.5-0.4-1.8-1z"/>
  </g>
</svg>
