<svg xmlns="http://www.w3.org/2000/svg" version="1.1" viewBox="0 0 100 100">
 <g transform="translate(-327.89987,-479.46275)">
  <path fill="#359d5f" d="m327.9,579.5,100,0,0-100-100,0,0,100z"/>
  <path fill="#FFF" d="m393.1,534.6-8.872,5.122,0-20.49,8.872,5.122,8.875,5.125-8.875,5.122zm-21.55-5.122,0,10.24-8.875-5.122-8.872-5.122,8.872-5.125,8.875-5.122,0,10.25zm40.89-20.47-69.11,0c-3.084,0-5.584,2.456-5.584,5.49v29.96c0,3.032,2.5,5.49,5.584,5.49h69.11c3.085,0,5.585-2.458,5.585-5.49v-29.96c0-3.033-2.5-5.49-5.585-5.49"/>
 </g>
</svg>
