<svg xmlns="http://www.w3.org/2000/svg" version="1.1" viewBox="0 0 100 100">
  <g transform="translate(-212.89943,-333.74896)">
    <path fill="#50abe4" d="m212.9 433.7 100 0 0-100-100 0 0 100zM296.2 363.1 296.2 363.1"/>
    <path fill="#FFF" d="m296.2 363.1c-2.5 1.1-5.1 1.8-7.9 2.2 2.8-1.7 5-4.4 6-7.6-2.6 1.6-5.6 2.7-8.7 3.3-2.5-2.7-6.1-4.3-10-4.3-7.6 0-13.7 6.1-13.7 13.7 0 1.1 0.1 2.1 0.4 3.1-11.4-0.6-21.4-6-28.2-14.3-1.2 2-1.9 4.4-1.9 6.9 0 4.7 2.4 8.9 6.1 11.4-2.2-0.1-4.3-0.7-6.2-1.7v0.2c0 6.6 4.7 12.2 11 13.4-1.1 0.3-2.4 0.5-3.6 0.5-0.9 0-1.7-0.1-2.6-0.2 1.7 5.4 6.8 9.4 12.8 9.5-4.7 3.7-10.6 5.9-17 5.9-1.1 0-2.2-0.1-3.3-0.2 6.1 3.9 13.2 6.1 21 6.1 25.2 0 38.9-20.8 38.9-38.9 0-0.6 0-1.2 0-1.8 2.7-1.9 5-4.3 6.8-7.1"/>
  </g>
</svg>
