<svg xmlns="http://www.w3.org/2000/svg" version="1.1" viewBox="0 0 100 100">
 <g transform="translate(-212.89943,-333.74896)">
  <path fill="#50abe4" d="m212.9,433.7,100,0,0-100-100,0,0,100z"/>
  <path fill="#FFF" d="m296.2,363.1c-2.454,1.089-5.09,1.825-7.856,2.154,2.824-1.693,4.996-4.371,6.014-7.566-2.639,1.567-5.565,2.707-8.682,3.32-2.496-2.659-6.052-4.319-9.985-4.319-7.554,0-13.68,6.125-13.68,13.68,0,1.073,0.1221,2.115,0.3543,3.116-11.37-0.5679-21.44-6.012-28.19-14.29-1.176,2.024-1.851,4.371-1.851,6.879,0,4.742,2.414,8.932,6.083,11.38-2.241-0.069-4.35-0.6887-6.194-1.71v0.1712c0,6.627,4.716,12.15,10.97,13.41-1.145,0.3118-2.357,0.483-3.603,0.483-0.8798,0-1.74-0.089-2.573-0.2495,1.74,5.435,6.79,9.387,12.77,9.501-4.677,3.668-10.57,5.856-16.99,5.856-1.101,0-2.189-0.0677-3.259-0.1924,6.052,3.877,13.24,6.142,20.97,6.142,25.15,0,38.91-20.84,38.91-38.91,0-0.5892-0.0159-1.18-0.0372-1.771,2.666-1.924,4.983-4.334,6.821-7.078"/>
 </g>
</svg>
